<?xml version="1.0" encoding="UTF-8"?>
<!DOCTYPE svg PUBLIC "-//W3C//DTD SVG 1.1//EN" "http://www.w3.org/Graphics/SVG/1.1/DTD/svg11.dtd">
<svg xmlns="http://www.w3.org/2000/svg" style="background: #ffffff; background-color: light-dark(#ffffff, var(--ge-dark-color, #121212)); color-scheme: light dark;" xmlns:xlink="http://www.w3.org/1999/xlink" version="1.1" width="651px" height="461px" viewBox="0 0 651 461"><defs/><rect fill="#ffffff" width="100%" height="100%" x="0" y="0" style="fill: light-dark(#ffffff, var(--ge-dark-color, #121212));"/><g><g data-cell-id="0"><g data-cell-id="1"><g data-cell-id="c7EXTvOgZtUoP34uK3vO-1"><g transform="translate(0.5,0.5)"><rect x="360" y="35" width="120" height="35" fill="#ffffff" stroke="#000000" pointer-events="all" style="fill: light-dark(#ffffff, var(--ge-dark-color, #121212)); stroke: light-dark(rgb(0, 0, 0), rgb(255, 255, 255));"/></g><g><g><switch><foreignObject style="overflow: visible; text-align: left;" pointer-events="none" width="100%" height="100%" requiredFeatures="http://www.w3.org/TR/SVG11/feature#Extensibility"><div xmlns="http://www.w3.org/1999/xhtml" style="display: flex; align-items: unsafe center; justify-content: unsafe center; width: 118px; height: 1px; padding-top: 53px; margin-left: 361px;"><div style="box-sizing: border-box; font-size: 0; text-align: center; color: #000000; "><div style="display: inline-block; font-size: 12px; font-family: Helvetica; color: light-dark(#000000, #ffffff); line-height: 1.2; pointer-events: all; white-space: normal; word-wrap: normal; "><font style="font-size: 14px;">Postfix</font></div></div></div></foreignObject><text x="420" y="56" fill="light-dark(#000000, #ffffff)" font-family="Helvetica" font-size="12px" text-anchor="middle">Postfix</text></switch></g></g><g data-cell-id="c7EXTvOgZtUoP34uK3vO-2"><g transform="translate(0.5,0.5)"><path d="M 457 42 L 473 42 L 473 62 L 457 62 L 457 58 L 453 58 L 453 54 L 457 54 L 457 50 L 453 50 L 453 46 L 457 46 Z" fill="#ffffff" stroke="#000000" stroke-miterlimit="10" pointer-events="all" style="fill: light-dark(#ffffff, var(--ge-dark-color, #121212)); stroke: light-dark(rgb(0, 0, 0), rgb(255, 255, 255));"/><path d="M 457 46 L 461 46 L 461 50 L 457 50 M 457 54 L 461 54 L 461 58 L 457 58" fill="none" stroke="#000000" stroke-miterlimit="10" pointer-events="all" style="stroke: light-dark(rgb(0, 0, 0), rgb(255, 255, 255));"/></g></g></g><g data-cell-id="c7EXTvOgZtUoP34uK3vO-3"><g transform="translate(0.5,0.5)"><rect x="510" y="35" width="120" height="35" fill="#ffffff" stroke="#000000" pointer-events="all" style="fill: light-dark(#ffffff, var(--ge-dark-color, #121212)); stroke: light-dark(rgb(0, 0, 0), rgb(255, 255, 255));"/></g><g><g><switch><foreignObject style="overflow: visible; text-align: left;" pointer-events="none" width="100%" height="100%" requiredFeatures="http://www.w3.org/TR/SVG11/feature#Extensibility"><div xmlns="http://www.w3.org/1999/xhtml" style="display: flex; align-items: unsafe center; justify-content: unsafe center; width: 118px; height: 1px; padding-top: 53px; margin-left: 511px;"><div style="box-sizing: border-box; font-size: 0; text-align: center; color: #000000; "><div style="display: inline-block; font-size: 12px; font-family: Helvetica; color: light-dark(#000000, #ffffff); line-height: 1.2; pointer-events: all; white-space: normal; word-wrap: normal; "><font style="font-size: 14px;">Database</font></div></div></div></foreignObject><text x="570" y="56" fill="light-dark(#000000, #ffffff)" font-family="Helvetica" font-size="12px" text-anchor="middle">Database</text></switch></g></g><g data-cell-id="c7EXTvOgZtUoP34uK3vO-4"><g transform="translate(0.5,0.5)"><path d="M 607 42 L 623 42 L 623 62 L 607 62 L 607 58 L 603 58 L 603 54 L 607 54 L 607 50 L 603 50 L 603 46 L 607 46 Z" fill="#ffffff" stroke="#000000" stroke-miterlimit="10" pointer-events="all" style="fill: light-dark(#ffffff, var(--ge-dark-color, #121212)); stroke: light-dark(rgb(0, 0, 0), rgb(255, 255, 255));"/><path d="M 607 46 L 611 46 L 611 50 L 607 50 M 607 54 L 611 54 L 611 58 L 607 58" fill="none" stroke="#000000" stroke-miterlimit="10" pointer-events="all" style="stroke: light-dark(rgb(0, 0, 0), rgb(255, 255, 255));"/></g></g></g><g data-cell-id="c7EXTvOgZtUoP34uK3vO-5"><g transform="translate(0.5,0.5)"><rect x="0" y="0" width="330" height="80" fill="#ffffff" stroke="#000000" pointer-events="all" style="fill: light-dark(#ffffff, var(--ge-dark-color, #121212)); stroke: light-dark(rgb(0, 0, 0), rgb(255, 255, 255));"/></g><g><g><switch><foreignObject style="overflow: visible; text-align: left;" pointer-events="none" width="100%" height="100%" requiredFeatures="http://www.w3.org/TR/SVG11/feature#Extensibility"><div xmlns="http://www.w3.org/1999/xhtml" style="display: flex; align-items: unsafe flex-start; justify-content: unsafe center; width: 328px; height: 1px; padding-top: 7px; margin-left: 1px;"><div style="box-sizing: border-box; font-size: 0; text-align: center; color: #000000; "><div style="display: inline-block; font-size: 12px; font-family: Helvetica; color: light-dark(#000000, #ffffff); line-height: 1.2; pointer-events: all; white-space: normal; word-wrap: normal; "><font style="font-size: 14px;">Keycloak</font></div></div></div></foreignObject><text x="165" y="19" fill="light-dark(#000000, #ffffff)" font-family="Helvetica" font-size="12px" text-anchor="middle">Keycloak</text></switch></g></g><g data-cell-id="c7EXTvOgZtUoP34uK3vO-6"><g transform="translate(0.5,0.5)"><path d="M 307 7 L 323 7 L 323 27 L 307 27 L 307 23 L 303 23 L 303 19 L 307 19 L 307 15 L 303 15 L 303 11 L 307 11 Z" fill="#ffffff" stroke="#000000" stroke-miterlimit="10" pointer-events="all" style="fill: light-dark(#ffffff, var(--ge-dark-color, #121212)); stroke: light-dark(rgb(0, 0, 0), rgb(255, 255, 255));"/><path d="M 307 11 L 311 11 L 311 15 L 307 15 M 307 19 L 311 19 L 311 23 L 307 23" fill="none" stroke="#000000" stroke-miterlimit="10" pointer-events="all" style="stroke: light-dark(rgb(0, 0, 0), rgb(255, 255, 255));"/></g></g></g><g data-cell-id="c7EXTvOgZtUoP34uK3vO-7"><g transform="translate(0.5,0.5)"><rect x="9" y="35" width="140" height="35" fill="#ffffff" stroke="#000000" pointer-events="all" style="fill: light-dark(#ffffff, var(--ge-dark-color, #121212)); stroke: light-dark(rgb(0, 0, 0), rgb(255, 255, 255));"/></g><g><g><switch><foreignObject style="overflow: visible; text-align: left;" pointer-events="none" width="100%" height="100%" requiredFeatures="http://www.w3.org/TR/SVG11/feature#Extensibility"><div xmlns="http://www.w3.org/1999/xhtml" style="display: flex; align-items: unsafe center; justify-content: unsafe center; width: 158px; height: 1px; padding-top: 53px; margin-left: -10px;"><div style="box-sizing: border-box; font-size: 0; text-align: center; color: #000000; "><div style="display: inline-block; font-size: 12px; font-family: Helvetica; color: light-dark(#000000, #ffffff); line-height: 1.2; pointer-events: all; white-space: normal; word-wrap: normal; "><font style="font-size: 14px;">Authentication</font></div></div></div></foreignObject><text x="69" y="56" fill="light-dark(#000000, #ffffff)" font-family="Helvetica" font-size="12px" text-anchor="middle">Authentication</text></switch></g></g><g data-cell-id="c7EXTvOgZtUoP34uK3vO-8"><g transform="translate(0.5,0.5)"><path d="M 126 42 L 142 42 L 142 62 L 126 62 L 126 58 L 122 58 L 122 54 L 126 54 L 126 50 L 122 50 L 122 46 L 126 46 Z" fill="#ffffff" stroke="#000000" stroke-miterlimit="10" pointer-events="all" style="fill: light-dark(#ffffff, var(--ge-dark-color, #121212)); stroke: light-dark(rgb(0, 0, 0), rgb(255, 255, 255));"/><path d="M 126 46 L 130 46 L 130 50 L 126 50 M 126 54 L 130 54 L 130 58 L 126 58" fill="none" stroke="#000000" stroke-miterlimit="10" pointer-events="all" style="stroke: light-dark(rgb(0, 0, 0), rgb(255, 255, 255));"/></g></g></g><g data-cell-id="c7EXTvOgZtUoP34uK3vO-9"><g transform="translate(0.5,0.5)"><rect x="0" y="180" width="160" height="280" fill="#ffffff" stroke="#000000" pointer-events="all" style="fill: light-dark(#ffffff, var(--ge-dark-color, #121212)); stroke: light-dark(rgb(0, 0, 0), rgb(255, 255, 255));"/></g><g><g><switch><foreignObject style="overflow: visible; text-align: left;" pointer-events="none" width="100%" height="100%" requiredFeatures="http://www.w3.org/TR/SVG11/feature#Extensibility"><div xmlns="http://www.w3.org/1999/xhtml" style="display: flex; align-items: unsafe flex-start; justify-content: unsafe center; width: 158px; height: 1px; padding-top: 187px; margin-left: 1px;"><div style="box-sizing: border-box; font-size: 0; text-align: center; color: #000000; "><div style="display: inline-block; font-size: 12px; font-family: Helvetica; color: light-dark(#000000, #ffffff); line-height: 1.2; pointer-events: all; white-space: normal; word-wrap: normal; "><font style="font-size: 14px;">Client</font></div></div></div></foreignObject><text x="80" y="199" fill="light-dark(#000000, #ffffff)" font-family="Helvetica" font-size="12px" text-anchor="middle">Client</text></switch></g></g><g data-cell-id="c7EXTvOgZtUoP34uK3vO-10"><g transform="translate(0.5,0.5)"><path d="M 137 187 L 153 187 L 153 207 L 137 207 L 137 203 L 133 203 L 133 199 L 137 199 L 137 195 L 133 195 L 133 191 L 137 191 Z" fill="#ffffff" stroke="#000000" stroke-miterlimit="10" pointer-events="all" style="fill: light-dark(#ffffff, var(--ge-dark-color, #121212)); stroke: light-dark(rgb(0, 0, 0), rgb(255, 255, 255));"/><path d="M 137 191 L 141 191 L 141 195 L 137 195 M 137 199 L 141 199 L 141 203 L 137 203" fill="none" stroke="#000000" stroke-miterlimit="10" pointer-events="all" style="stroke: light-dark(rgb(0, 0, 0), rgb(255, 255, 255));"/></g></g></g><g data-cell-id="c7EXTvOgZtUoP34uK3vO-11"><g transform="translate(0.5,0.5)"><rect x="290" y="170" width="360" height="290" fill="#ffffff" stroke="#000000" pointer-events="all" style="fill: light-dark(#ffffff, var(--ge-dark-color, #121212)); stroke: light-dark(rgb(0, 0, 0), rgb(255, 255, 255));"/></g><g><g><switch><foreignObject style="overflow: visible; text-align: left;" pointer-events="none" width="100%" height="100%" requiredFeatures="http://www.w3.org/TR/SVG11/feature#Extensibility"><div xmlns="http://www.w3.org/1999/xhtml" style="display: flex; align-items: unsafe flex-start; justify-content: unsafe center; width: 358px; height: 1px; padding-top: 177px; margin-left: 291px;"><div style="box-sizing: border-box; font-size: 0; text-align: center; color: #000000; "><div style="display: inline-block; font-size: 12px; font-family: Helvetica; color: light-dark(#000000, #ffffff); line-height: 1.2; pointer-events: all; white-space: normal; word-wrap: normal; "><font style="font-size: 14px;">Application Server</font></div></div></div></foreignObject><text x="470" y="189" fill="light-dark(#000000, #ffffff)" font-family="Helvetica" font-size="12px" text-anchor="middle">Application Server</text></switch></g></g><g data-cell-id="c7EXTvOgZtUoP34uK3vO-12"><g transform="translate(0.5,0.5)"><path d="M 627 177 L 643 177 L 643 197 L 627 197 L 627 193 L 623 193 L 623 189 L 627 189 L 627 185 L 623 185 L 623 181 L 627 181 Z" fill="#ffffff" stroke="#000000" stroke-miterlimit="10" pointer-events="all" style="fill: light-dark(#ffffff, var(--ge-dark-color, #121212)); stroke: light-dark(rgb(0, 0, 0), rgb(255, 255, 255));"/><path d="M 627 181 L 631 181 L 631 185 L 627 185 M 627 189 L 631 189 L 631 193 L 627 193" fill="none" stroke="#000000" stroke-miterlimit="10" pointer-events="all" style="stroke: light-dark(rgb(0, 0, 0), rgb(255, 255, 255));"/></g></g></g><g data-cell-id="c7EXTvOgZtUoP34uK3vO-13"><g transform="translate(0.5,0.5)"><rect x="180" y="35" width="140" height="35" fill="#ffffff" stroke="#000000" pointer-events="all" style="fill: light-dark(#ffffff, var(--ge-dark-color, #121212)); stroke: light-dark(rgb(0, 0, 0), rgb(255, 255, 255));"/></g><g><g><switch><foreignObject style="overflow: visible; text-align: left;" pointer-events="none" width="100%" height="100%" requiredFeatures="http://www.w3.org/TR/SVG11/feature#Extensibility"><div xmlns="http://www.w3.org/1999/xhtml" style="display: flex; align-items: unsafe center; justify-content: unsafe center; width: 158px; height: 1px; padding-top: 53px; margin-left: 161px;"><div style="box-sizing: border-box; font-size: 0; text-align: center; color: #000000; "><div style="display: inline-block; font-size: 12px; font-family: Helvetica; color: light-dark(#000000, #ffffff); line-height: 1.2; pointer-events: all; white-space: normal; word-wrap: normal; "><font style="font-size: 14px;">Administration</font></div></div></div></foreignObject><text x="240" y="56" fill="light-dark(#000000, #ffffff)" font-family="Helvetica" font-size="12px" text-anchor="middle">Administration</text></switch></g></g><g data-cell-id="c7EXTvOgZtUoP34uK3vO-14"><g transform="translate(0.5,0.5)"><path d="M 297 42 L 313 42 L 313 62 L 297 62 L 297 58 L 293 58 L 293 54 L 297 54 L 297 50 L 293 50 L 293 46 L 297 46 Z" fill="#ffffff" stroke="#000000" stroke-miterlimit="10" pointer-events="all" style="fill: light-dark(#ffffff, var(--ge-dark-color, #121212)); stroke: light-dark(rgb(0, 0, 0), rgb(255, 255, 255));"/><path d="M 297 46 L 301 46 L 301 50 L 297 50 M 297 54 L 301 54 L 301 58 L 297 58" fill="none" stroke="#000000" stroke-miterlimit="10" pointer-events="all" style="stroke: light-dark(rgb(0, 0, 0), rgb(255, 255, 255));"/></g></g></g><g data-cell-id="c7EXTvOgZtUoP34uK3vO-15"><g transform="translate(0.5,0.5)"><rect x="10" y="405" width="140" height="35" fill="#ffffff" stroke="#000000" pointer-events="all" style="fill: light-dark(#ffffff, var(--ge-dark-color, #121212)); stroke: light-dark(rgb(0, 0, 0), rgb(255, 255, 255));"/></g><g><g><switch><foreignObject style="overflow: visible; text-align: left;" pointer-events="none" width="100%" height="100%" requiredFeatures="http://www.w3.org/TR/SVG11/feature#Extensibility"><div xmlns="http://www.w3.org/1999/xhtml" style="display: flex; align-items: unsafe center; justify-content: unsafe center; width: 138px; height: 1px; padding-top: 423px; margin-left: 11px;"><div style="box-sizing: border-box; font-size: 0; text-align: center; color: #000000; "><div style="display: inline-block; font-size: 12px; font-family: Helvetica; color: light-dark(#000000, #ffffff); line-height: 1.2; pointer-events: all; white-space: normal; word-wrap: normal; "><font style="font-size: 14px;">Application</font></div></div></div></foreignObject><text x="80" y="426" fill="light-dark(#000000, #ffffff)" font-family="Helvetica" font-size="12px" text-anchor="middle">Application</text></switch></g></g><g data-cell-id="c7EXTvOgZtUoP34uK3vO-16"><g transform="translate(0.5,0.5)"><path d="M 127 412 L 143 412 L 143 432 L 127 432 L 127 428 L 123 428 L 123 424 L 127 424 L 127 420 L 123 420 L 123 416 L 127 416 Z" fill="#ffffff" stroke="#000000" stroke-miterlimit="10" pointer-events="all" style="fill: light-dark(#ffffff, var(--ge-dark-color, #121212)); stroke: light-dark(rgb(0, 0, 0), rgb(255, 255, 255));"/><path d="M 127 416 L 131 416 L 131 420 L 127 420 M 127 424 L 131 424 L 131 428 L 127 428" fill="none" stroke="#000000" stroke-miterlimit="10" pointer-events="all" style="stroke: light-dark(rgb(0, 0, 0), rgb(255, 255, 255));"/></g></g></g><g data-cell-id="c7EXTvOgZtUoP34uK3vO-17"><g transform="translate(0.5,0.5)"><rect x="10" y="249" width="140" height="35" fill="#ffffff" stroke="#000000" pointer-events="all" style="fill: light-dark(#ffffff, var(--ge-dark-color, #121212)); stroke: light-dark(rgb(0, 0, 0), rgb(255, 255, 255));"/></g><g><g><switch><foreignObject style="overflow: visible; text-align: left;" pointer-events="none" width="100%" height="100%" requiredFeatures="http://www.w3.org/TR/SVG11/feature#Extensibility"><div xmlns="http://www.w3.org/1999/xhtml" style="display: flex; align-items: unsafe center; justify-content: unsafe center; width: 138px; height: 1px; padding-top: 267px; margin-left: 11px;"><div style="box-sizing: border-box; font-size: 0; text-align: center; color: #000000; "><div style="display: inline-block; font-size: 12px; font-family: Helvetica; color: light-dark(#000000, #ffffff); line-height: 1.2; pointer-events: all; white-space: normal; word-wrap: normal; "><font style="font-size: 14px;">Thesis</font></div></div></div></foreignObject><text x="80" y="270" fill="light-dark(#000000, #ffffff)" font-family="Helvetica" font-size="12px" text-anchor="middle">Thesis</text></switch></g></g><g data-cell-id="c7EXTvOgZtUoP34uK3vO-18"><g transform="translate(0.5,0.5)"><path d="M 127 256 L 143 256 L 143 276 L 127 276 L 127 272 L 123 272 L 123 268 L 127 268 L 127 264 L 123 264 L 123 260 L 127 260 Z" fill="#ffffff" stroke="#000000" stroke-miterlimit="10" pointer-events="all" style="fill: light-dark(#ffffff, var(--ge-dark-color, #121212)); stroke: light-dark(rgb(0, 0, 0), rgb(255, 255, 255));"/><path d="M 127 260 L 131 260 L 131 264 L 127 264 M 127 268 L 131 268 L 131 272 L 127 272" fill="none" stroke="#000000" stroke-miterlimit="10" pointer-events="all" style="stroke: light-dark(rgb(0, 0, 0), rgb(255, 255, 255));"/></g></g></g><g data-cell-id="c7EXTvOgZtUoP34uK3vO-19"><g transform="translate(0.5,0.5)"><rect x="310" y="405" width="140" height="35" fill="#ffffff" stroke="#000000" pointer-events="all" style="fill: light-dark(#ffffff, var(--ge-dark-color, #121212)); stroke: light-dark(rgb(0, 0, 0), rgb(255, 255, 255));"/></g><g><g><switch><foreignObject style="overflow: visible; text-align: left;" pointer-events="none" width="100%" height="100%" requiredFeatures="http://www.w3.org/TR/SVG11/feature#Extensibility"><div xmlns="http://www.w3.org/1999/xhtml" style="display: flex; align-items: unsafe center; justify-content: unsafe center; width: 138px; height: 1px; padding-top: 423px; margin-left: 311px;"><div style="box-sizing: border-box; font-size: 0; text-align: center; color: #000000; "><div style="display: inline-block; font-size: 12px; font-family: Helvetica; color: light-dark(#000000, #ffffff); line-height: 1.2; pointer-events: all; white-space: normal; word-wrap: normal; "><div><span style="background-color: initial;"><font style="font-size: 14px;">Application</font></span><br /></div></div></div></div></foreignObject><text x="380" y="426" fill="light-dark(#000000, #ffffff)" font-family="Helvetica" font-size="12px" text-anchor="middle">Application&#xa;</text></switch></g></g><g data-cell-id="c7EXTvOgZtUoP34uK3vO-20"><g transform="translate(0.5,0.5)"><path d="M 427 412 L 443 412 L 443 432 L 427 432 L 427 428 L 423 428 L 423 424 L 427 424 L 427 420 L 423 420 L 423 416 L 427 416 Z" fill="#ffffff" stroke="#000000" stroke-miterlimit="10" pointer-events="all" style="fill: light-dark(#ffffff, var(--ge-dark-color, #121212)); stroke: light-dark(rgb(0, 0, 0), rgb(255, 255, 255));"/><path d="M 427 416 L 431 416 L 431 420 L 427 420 M 427 424 L 431 424 L 431 428 L 427 428" fill="none" stroke="#000000" stroke-miterlimit="10" pointer-events="all" style="stroke: light-dark(rgb(0, 0, 0), rgb(255, 255, 255));"/></g></g></g><g data-cell-id="c7EXTvOgZtUoP34uK3vO-21"><g transform="translate(0.5,0.5)"><path d="M 456.37 254.73 L 480 254.75 L 480 223 L 493.26 223" fill="none" stroke="#000000" stroke-miterlimit="10" pointer-events="stroke" style="stroke: light-dark(rgb(0, 0, 0), rgb(255, 255, 255));"/><path d="M 451.12 254.73 L 458.12 251.23 L 456.37 254.73 L 458.12 258.23 Z" fill="#000000" stroke="#000000" stroke-miterlimit="10" pointer-events="all" style="fill: light-dark(rgb(0, 0, 0), rgb(255, 255, 255)); stroke: light-dark(rgb(0, 0, 0), rgb(255, 255, 255));"/><path d="M 498.51 223 L 491.51 226.5 L 493.26 223 L 491.51 219.5 Z" fill="#000000" stroke="#000000" stroke-miterlimit="10" pointer-events="all" style="fill: light-dark(rgb(0, 0, 0), rgb(255, 255, 255)); stroke: light-dark(rgb(0, 0, 0), rgb(255, 255, 255));"/></g></g><g data-cell-id="c7EXTvOgZtUoP34uK3vO-22"><g transform="translate(0.5,0.5)"><path d="M 456.37 267.5 L 493.63 267.5" fill="none" stroke="#000000" stroke-miterlimit="10" pointer-events="stroke" style="stroke: light-dark(rgb(0, 0, 0), rgb(255, 255, 255));"/><path d="M 451.12 267.5 L 458.12 264 L 456.37 267.5 L 458.12 271 Z" fill="#000000" stroke="#000000" stroke-miterlimit="10" pointer-events="all" style="fill: light-dark(rgb(0, 0, 0), rgb(255, 255, 255)); stroke: light-dark(rgb(0, 0, 0), rgb(255, 255, 255));"/><path d="M 498.88 267.5 L 491.88 271 L 493.63 267.5 L 491.88 264 Z" fill="#000000" stroke="#000000" stroke-miterlimit="10" pointer-events="all" style="fill: light-dark(rgb(0, 0, 0), rgb(255, 255, 255)); stroke: light-dark(rgb(0, 0, 0), rgb(255, 255, 255));"/></g></g><g data-cell-id="c7EXTvOgZtUoP34uK3vO-23"><g transform="translate(0.5,0.5)"><path d="M 456.37 279.91 L 480 279.88 L 480 317 L 493.51 317" fill="none" stroke="#000000" stroke-miterlimit="10" pointer-events="stroke" style="stroke: light-dark(rgb(0, 0, 0), rgb(255, 255, 255));"/><path d="M 451.12 279.92 L 458.11 276.41 L 456.37 279.91 L 458.12 283.41 Z" fill="#000000" stroke="#000000" stroke-miterlimit="10" pointer-events="all" style="fill: light-dark(rgb(0, 0, 0), rgb(255, 255, 255)); stroke: light-dark(rgb(0, 0, 0), rgb(255, 255, 255));"/><path d="M 498.76 317 L 491.76 320.5 L 493.51 317 L 491.76 313.5 Z" fill="#000000" stroke="#000000" stroke-miterlimit="10" pointer-events="all" style="fill: light-dark(rgb(0, 0, 0), rgb(255, 255, 255)); stroke: light-dark(rgb(0, 0, 0), rgb(255, 255, 255));"/></g></g><g data-cell-id="c7EXTvOgZtUoP34uK3vO-24"><g transform="translate(0.5,0.5)"><rect x="310" y="250" width="140" height="35" fill="#ffffff" stroke="#000000" pointer-events="all" style="fill: light-dark(#ffffff, var(--ge-dark-color, #121212)); stroke: light-dark(rgb(0, 0, 0), rgb(255, 255, 255));"/></g><g><g><switch><foreignObject style="overflow: visible; text-align: left;" pointer-events="none" width="100%" height="100%" requiredFeatures="http://www.w3.org/TR/SVG11/feature#Extensibility"><div xmlns="http://www.w3.org/1999/xhtml" style="display: flex; align-items: unsafe center; justify-content: unsafe center; width: 138px; height: 1px; padding-top: 268px; margin-left: 311px;"><div style="box-sizing: border-box; font-size: 0; text-align: center; color: #000000; "><div style="display: inline-block; font-size: 12px; font-family: Helvetica; color: light-dark(#000000, #ffffff); line-height: 1.2; pointer-events: all; white-space: normal; word-wrap: normal; "><font style="font-size: 14px;">Thesis</font></div></div></div></foreignObject><text x="380" y="271" fill="light-dark(#000000, #ffffff)" font-family="Helvetica" font-size="12px" text-anchor="middle">Thesis</text></switch></g></g><g data-cell-id="c7EXTvOgZtUoP34uK3vO-25"><g transform="translate(0.5,0.5)"><path d="M 427 257 L 443 257 L 443 277 L 427 277 L 427 273 L 423 273 L 423 269 L 427 269 L 427 265 L 423 265 L 423 261 L 427 261 Z" fill="#ffffff" stroke="#000000" stroke-miterlimit="10" pointer-events="all" style="fill: light-dark(#ffffff, var(--ge-dark-color, #121212)); stroke: light-dark(rgb(0, 0, 0), rgb(255, 255, 255));"/><path d="M 427 261 L 431 261 L 431 265 L 427 265 M 427 269 L 431 269 L 431 273 L 427 273" fill="none" stroke="#000000" stroke-miterlimit="10" pointer-events="all" style="stroke: light-dark(rgb(0, 0, 0), rgb(255, 255, 255));"/></g></g></g><g data-cell-id="c7EXTvOgZtUoP34uK3vO-26"><g transform="translate(0.5,0.5)"><rect x="500" y="203" width="140" height="35" fill="#ffffff" stroke="#000000" pointer-events="all" style="fill: light-dark(#ffffff, var(--ge-dark-color, #121212)); stroke: light-dark(rgb(0, 0, 0), rgb(255, 255, 255));"/></g><g><g><switch><foreignObject style="overflow: visible; text-align: left;" pointer-events="none" width="100%" height="100%" requiredFeatures="http://www.w3.org/TR/SVG11/feature#Extensibility"><div xmlns="http://www.w3.org/1999/xhtml" style="display: flex; align-items: unsafe center; justify-content: unsafe center; width: 138px; height: 1px; padding-top: 221px; margin-left: 501px;"><div style="box-sizing: border-box; font-size: 0; text-align: center; color: #000000; "><div style="display: inline-block; font-size: 12px; font-family: Helvetica; color: light-dark(#000000, #ffffff); line-height: 1.2; pointer-events: all; white-space: normal; word-wrap: normal; "><font style="font-size: 14px;">Presentation</font></div></div></div></foreignObject><text x="570" y="224" fill="light-dark(#000000, #ffffff)" font-family="Helvetica" font-size="12px" text-anchor="middle">Presentation</text></switch></g></g><g data-cell-id="c7EXTvOgZtUoP34uK3vO-27"><g transform="translate(0.5,0.5)"><path d="M 617 210 L 633 210 L 633 230 L 617 230 L 617 226 L 613 226 L 613 222 L 617 222 L 617 218 L 613 218 L 613 214 L 617 214 Z" fill="#ffffff" stroke="#000000" stroke-miterlimit="10" pointer-events="all" style="fill: light-dark(#ffffff, var(--ge-dark-color, #121212)); stroke: light-dark(rgb(0, 0, 0), rgb(255, 255, 255));"/><path d="M 617 214 L 621 214 L 621 218 L 617 218 M 617 222 L 621 222 L 621 226 L 617 226" fill="none" stroke="#000000" stroke-miterlimit="10" pointer-events="all" style="stroke: light-dark(rgb(0, 0, 0), rgb(255, 255, 255));"/></g></g></g><g data-cell-id="c7EXTvOgZtUoP34uK3vO-28"><g transform="translate(0.5,0.5)"><path d="M 500 422.5 L 456.37 422.5" fill="none" stroke="#000000" stroke-miterlimit="10" pointer-events="stroke" style="stroke: light-dark(rgb(0, 0, 0), rgb(255, 255, 255));"/><path d="M 451.12 422.5 L 458.12 419 L 456.37 422.5 L 458.12 426 Z" fill="#000000" stroke="#000000" stroke-miterlimit="10" pointer-events="all" style="fill: light-dark(rgb(0, 0, 0), rgb(255, 255, 255)); stroke: light-dark(rgb(0, 0, 0), rgb(255, 255, 255));"/></g></g><g data-cell-id="c7EXTvOgZtUoP34uK3vO-29"><g transform="translate(0.5,0.5)"><rect x="500" y="405" width="140" height="35" fill="#ffffff" stroke="#000000" pointer-events="all" style="fill: light-dark(#ffffff, var(--ge-dark-color, #121212)); stroke: light-dark(rgb(0, 0, 0), rgb(255, 255, 255));"/></g><g><g><switch><foreignObject style="overflow: visible; text-align: left;" pointer-events="none" width="100%" height="100%" requiredFeatures="http://www.w3.org/TR/SVG11/feature#Extensibility"><div xmlns="http://www.w3.org/1999/xhtml" style="display: flex; align-items: unsafe center; justify-content: unsafe center; width: 138px; height: 1px; padding-top: 423px; margin-left: 501px;"><div style="box-sizing: border-box; font-size: 0; text-align: center; color: #000000; "><div style="display: inline-block; font-size: 12px; font-family: Helvetica; color: light-dark(#000000, #ffffff); line-height: 1.2; pointer-events: all; white-space: normal; word-wrap: normal; "><font style="font-size: 14px;">Topic</font></div></div></div></foreignObject><text x="570" y="426" fill="light-dark(#000000, #ffffff)" font-family="Helvetica" font-size="12px" text-anchor="middle">Topic</text></switch></g></g><g data-cell-id="c7EXTvOgZtUoP34uK3vO-30"><g transform="translate(0.5,0.5)"><path d="M 617 412 L 633 412 L 633 432 L 617 432 L 617 428 L 613 428 L 613 424 L 617 424 L 617 420 L 613 420 L 613 416 L 617 416 Z" fill="#ffffff" stroke="#000000" stroke-miterlimit="10" pointer-events="all" style="fill: light-dark(#ffffff, var(--ge-dark-color, #121212)); stroke: light-dark(rgb(0, 0, 0), rgb(255, 255, 255));"/><path d="M 617 416 L 621 416 L 621 420 L 617 420 M 617 424 L 621 424 L 621 428 L 617 428" fill="none" stroke="#000000" stroke-miterlimit="10" pointer-events="all" style="stroke: light-dark(rgb(0, 0, 0), rgb(255, 255, 255));"/></g></g></g><g data-cell-id="c7EXTvOgZtUoP34uK3vO-33"><g transform="translate(0.5,0.5)"><ellipse cx="236" cy="423" rx="7" ry="7" fill="#ffffff" stroke="#000000" transform="rotate(180,239,423)" pointer-events="all" style="fill: light-dark(#ffffff, var(--ge-dark-color, #121212)); stroke: light-dark(rgb(0, 0, 0), rgb(255, 255, 255));"/><path d="M 239 413 Q 249 413 249 423 Q 249 433 239 433" fill="none" stroke="#000000" stroke-miterlimit="10" transform="rotate(180,239,423)" pointer-events="all" style="stroke: light-dark(rgb(0, 0, 0), rgb(255, 255, 255));"/></g><g><g><switch><foreignObject style="overflow: visible; text-align: left;" pointer-events="none" width="100%" height="100%" requiredFeatures="http://www.w3.org/TR/SVG11/feature#Extensibility"><div xmlns="http://www.w3.org/1999/xhtml" style="display: flex; align-items: unsafe flex-end; justify-content: unsafe center; width: 1px; height: 1px; padding-top: 410px; margin-left: 239px;"><div style="box-sizing: border-box; font-size: 0; text-align: center; color: #000000; "><div style="display: inline-block; font-size: 10px; font-family: Helvetica; color: light-dark(#000000, #ffffff); line-height: 1.2; pointer-events: all; white-space: nowrap; "><font style="font-size: 14px;">Application Data</font></div></div></div></foreignObject><text x="239" y="410" fill="light-dark(#000000, #ffffff)" font-family="Helvetica" font-size="10px" text-anchor="middle">Appl...</text></switch></g></g></g><g data-cell-id="c7EXTvOgZtUoP34uK3vO-36"><g transform="translate(0.5,0.5)"><ellipse cx="236" cy="267" rx="7" ry="7" fill="#ffffff" stroke="#000000" transform="translate(239,0)scale(-1,1)translate(-239,0)" pointer-events="all" style="fill: light-dark(#ffffff, var(--ge-dark-color, #121212)); stroke: light-dark(rgb(0, 0, 0), rgb(255, 255, 255));"/><path d="M 239 257 Q 249 257 249 267 Q 249 277 239 277" fill="none" stroke="#000000" stroke-miterlimit="10" transform="translate(239,0)scale(-1,1)translate(-239,0)" pointer-events="all" style="stroke: light-dark(rgb(0, 0, 0), rgb(255, 255, 255));"/></g><g><g><switch><foreignObject style="overflow: visible; text-align: left;" pointer-events="none" width="100%" height="100%" requiredFeatures="http://www.w3.org/TR/SVG11/feature#Extensibility"><div xmlns="http://www.w3.org/1999/xhtml" style="display: flex; align-items: unsafe flex-end; justify-content: unsafe center; width: 1px; height: 1px; padding-top: 254px; margin-left: 239px;"><div style="box-sizing: border-box; font-size: 0; text-align: center; color: #000000; "><div style="display: inline-block; font-size: 10px; font-family: Helvetica; color: light-dark(#000000, #ffffff); line-height: 1.2; pointer-events: all; white-space: nowrap; "><font style="font-size: 14px;">Thesis Data</font></div></div></div></foreignObject><text x="239" y="254" fill="light-dark(#000000, #ffffff)" font-family="Helvetica" font-size="10px" text-anchor="middle">Thes...</text></switch></g></g></g><g data-cell-id="c7EXTvOgZtUoP34uK3vO-38"><g transform="translate(0.5,0.5)"><ellipse cx="47" cy="121" rx="7" ry="7" fill="#ffffff" stroke="#000000" transform="rotate(90,50,121)" pointer-events="all" style="fill: light-dark(#ffffff, var(--ge-dark-color, #121212)); stroke: light-dark(rgb(0, 0, 0), rgb(255, 255, 255));"/><path d="M 50 111 Q 60 111 60 121 Q 60 131 50 131" fill="none" stroke="#000000" stroke-miterlimit="10" transform="rotate(90,50,121)" pointer-events="all" style="stroke: light-dark(rgb(0, 0, 0), rgb(255, 255, 255));"/></g><g><g><switch><foreignObject style="overflow: visible; text-align: left;" pointer-events="none" width="100%" height="100%" requiredFeatures="http://www.w3.org/TR/SVG11/feature#Extensibility"><div xmlns="http://www.w3.org/1999/xhtml" style="display: flex; align-items: unsafe center; justify-content: unsafe center; width: 1px; height: 1px; padding-top: 110px; margin-left: 108px;"><div style="box-sizing: border-box; font-size: 0; text-align: center; color: #000000; "><div style="display: inline-block; font-size: 10px; font-family: Helvetica; color: light-dark(#000000, #ffffff); line-height: 1.2; pointer-events: all; white-space: nowrap; "><font style="font-size: 14px;">Authentication</font></div></div></div></foreignObject><text x="108" y="113" fill="light-dark(#000000, #ffffff)" font-family="Helvetica" font-size="10px" text-anchor="middle">Authentication</text></switch></g></g></g><g data-cell-id="c7EXTvOgZtUoP34uK3vO-39"><g transform="translate(0.5,0.5)"><path d="M 50 131 L 50 180" fill="none" stroke="#000000" stroke-miterlimit="10" pointer-events="stroke" style="stroke: light-dark(rgb(0, 0, 0), rgb(255, 255, 255));"/></g></g><g data-cell-id="c7EXTvOgZtUoP34uK3vO-40"><g transform="translate(0.5,0.5)"><path d="M 60 119.5 L 190 119.5 L 190 204 L 290 204" fill="none" stroke="#000000" stroke-miterlimit="10" pointer-events="stroke" style="stroke: light-dark(rgb(0, 0, 0), rgb(255, 255, 255));"/></g></g><g data-cell-id="c7EXTvOgZtUoP34uK3vO-42"><g transform="translate(0.5,0.5)"><ellipse cx="417" cy="121" rx="7" ry="7" fill="#ffffff" stroke="#000000" transform="rotate(90,420,121)" pointer-events="all" style="fill: light-dark(#ffffff, var(--ge-dark-color, #121212)); stroke: light-dark(rgb(0, 0, 0), rgb(255, 255, 255));"/><path d="M 420 111 Q 430 111 430 121 Q 430 131 420 131" fill="none" stroke="#000000" stroke-miterlimit="10" transform="rotate(90,420,121)" pointer-events="all" style="stroke: light-dark(rgb(0, 0, 0), rgb(255, 255, 255));"/></g><g><g><switch><foreignObject style="overflow: visible; text-align: left;" pointer-events="none" width="100%" height="100%" requiredFeatures="http://www.w3.org/TR/SVG11/feature#Extensibility"><div xmlns="http://www.w3.org/1999/xhtml" style="display: flex; align-items: unsafe center; justify-content: unsafe center; width: 1px; height: 1px; padding-top: 121px; margin-left: 380px;"><div style="box-sizing: border-box; font-size: 0; text-align: center; color: #000000; "><div style="display: inline-block; font-size: 10px; font-family: Helvetica; color: light-dark(#000000, #ffffff); line-height: 1.2; pointer-events: all; white-space: nowrap; "><font style="font-size: 14px;">Mailing</font><div style="font-size: 14px;"><font style="font-size: 14px;">Service</font></div></div></div></div></foreignObject><text x="380" y="124" fill="light-dark(#000000, #ffffff)" font-family="Helvetica" font-size="10px" text-anchor="middle">Mailing...</text></switch></g></g></g><g data-cell-id="c7EXTvOgZtUoP34uK3vO-43"><g transform="translate(0.5,0.5)"><ellipse cx="567" cy="121" rx="7" ry="7" fill="#ffffff" stroke="#000000" transform="rotate(90,570,121)" pointer-events="all" style="fill: light-dark(#ffffff, var(--ge-dark-color, #121212)); stroke: light-dark(rgb(0, 0, 0), rgb(255, 255, 255));"/><path d="M 570 111 Q 580 111 580 121 Q 580 131 570 131" fill="none" stroke="#000000" stroke-miterlimit="10" transform="rotate(90,570,121)" pointer-events="all" style="stroke: light-dark(rgb(0, 0, 0), rgb(255, 255, 255));"/></g><g><g><switch><foreignObject style="overflow: visible; text-align: left;" pointer-events="none" width="100%" height="100%" requiredFeatures="http://www.w3.org/TR/SVG11/feature#Extensibility"><div xmlns="http://www.w3.org/1999/xhtml" style="display: flex; align-items: unsafe center; justify-content: unsafe center; width: 1px; height: 1px; padding-top: 121px; margin-left: 520px;"><div style="box-sizing: border-box; font-size: 0; text-align: center; color: #000000; "><div style="display: inline-block; font-size: 10px; font-family: Helvetica; color: light-dark(#000000, #ffffff); line-height: 1.2; pointer-events: all; white-space: nowrap; "><div style=""><span style="font-size: 14px; background-color: transparent; color: light-dark(rgb(0, 0, 0), rgb(255, 255, 255));">Persistence</span></div><div style="font-size: 14px;"><span style="background-color: initial;"><font style="font-size: 14px;">Service</font></span></div></div></div></div></foreignObject><text x="520" y="124" fill="light-dark(#000000, #ffffff)" font-family="Helvetica" font-size="10px" text-anchor="middle">Persistence...</text></switch></g></g></g><g data-cell-id="c7EXTvOgZtUoP34uK3vO-44"><g transform="translate(0.5,0.5)"><path d="M 420 70 L 420 111" fill="none" stroke="#000000" stroke-miterlimit="10" pointer-events="stroke" style="stroke: light-dark(rgb(0, 0, 0), rgb(255, 255, 255));"/></g></g><g data-cell-id="c7EXTvOgZtUoP34uK3vO-46"><g transform="translate(0.5,0.5)"><path d="M 570 70 L 570 111" fill="none" stroke="#000000" stroke-miterlimit="10" pointer-events="stroke" style="stroke: light-dark(rgb(0, 0, 0), rgb(255, 255, 255));"/></g></g><g data-cell-id="c7EXTvOgZtUoP34uK3vO-48"><g transform="translate(0.5,0.5)"><rect x="500" y="297" width="140" height="35" fill="#ffffff" stroke="#000000" pointer-events="all" style="fill: light-dark(#ffffff, var(--ge-dark-color, #121212)); stroke: light-dark(rgb(0, 0, 0), rgb(255, 255, 255));"/></g><g><g><switch><foreignObject style="overflow: visible; text-align: left;" pointer-events="none" width="100%" height="100%" requiredFeatures="http://www.w3.org/TR/SVG11/feature#Extensibility"><div xmlns="http://www.w3.org/1999/xhtml" style="display: flex; align-items: unsafe center; justify-content: unsafe center; width: 138px; height: 1px; padding-top: 315px; margin-left: 501px;"><div style="box-sizing: border-box; font-size: 0; text-align: center; color: #000000; "><div style="display: inline-block; font-size: 12px; font-family: Helvetica; color: light-dark(#000000, #ffffff); line-height: 1.2; pointer-events: all; white-space: normal; word-wrap: normal; "><font style="font-size: 14px;">Assessment</font></div></div></div></foreignObject><text x="570" y="318" fill="light-dark(#000000, #ffffff)" font-family="Helvetica" font-size="12px" text-anchor="middle">Assessment</text></switch></g></g><g data-cell-id="c7EXTvOgZtUoP34uK3vO-49"><g transform="translate(0.5,0.5)"><path d="M 617 304 L 633 304 L 633 324 L 617 324 L 617 320 L 613 320 L 613 316 L 617 316 L 617 312 L 613 312 L 613 308 L 617 308 Z" fill="#ffffff" stroke="#000000" stroke-miterlimit="10" pointer-events="all" style="fill: light-dark(#ffffff, var(--ge-dark-color, #121212)); stroke: light-dark(rgb(0, 0, 0), rgb(255, 255, 255));"/><path d="M 617 308 L 621 308 L 621 312 L 617 312 M 617 316 L 621 316 L 621 320 L 617 320" fill="none" stroke="#000000" stroke-miterlimit="10" pointer-events="all" style="stroke: light-dark(rgb(0, 0, 0), rgb(255, 255, 255));"/></g></g></g><g data-cell-id="c7EXTvOgZtUoP34uK3vO-50"><g transform="translate(0.5,0.5)"><rect x="500" y="250" width="140" height="35" fill="#ffffff" stroke="#000000" pointer-events="all" style="fill: light-dark(#ffffff, var(--ge-dark-color, #121212)); stroke: light-dark(rgb(0, 0, 0), rgb(255, 255, 255));"/></g><g><g><switch><foreignObject style="overflow: visible; text-align: left;" pointer-events="none" width="100%" height="100%" requiredFeatures="http://www.w3.org/TR/SVG11/feature#Extensibility"><div xmlns="http://www.w3.org/1999/xhtml" style="display: flex; align-items: unsafe center; justify-content: unsafe center; width: 138px; height: 1px; padding-top: 268px; margin-left: 501px;"><div style="box-sizing: border-box; font-size: 0; text-align: center; color: #000000; "><div style="display: inline-block; font-size: 12px; font-family: Helvetica; color: light-dark(#000000, #ffffff); line-height: 1.2; pointer-events: all; white-space: normal; word-wrap: normal; "><font style="font-size: 14px;">Proposal</font></div></div></div></foreignObject><text x="570" y="271" fill="light-dark(#000000, #ffffff)" font-family="Helvetica" font-size="12px" text-anchor="middle">Proposal</text></switch></g></g><g data-cell-id="c7EXTvOgZtUoP34uK3vO-51"><g transform="translate(0.5,0.5)"><path d="M 617 257 L 633 257 L 633 277 L 617 277 L 617 273 L 613 273 L 613 269 L 617 269 L 617 265 L 613 265 L 613 261 L 617 261 Z" fill="#ffffff" stroke="#000000" stroke-miterlimit="10" pointer-events="all" style="fill: light-dark(#ffffff, var(--ge-dark-color, #121212)); stroke: light-dark(rgb(0, 0, 0), rgb(255, 255, 255));"/><path d="M 617 261 L 621 261 L 621 265 L 617 265 M 617 269 L 621 269 L 621 273 L 617 273" fill="none" stroke="#000000" stroke-miterlimit="10" pointer-events="all" style="stroke: light-dark(rgb(0, 0, 0), rgb(255, 255, 255));"/></g></g></g><g data-cell-id="c7EXTvOgZtUoP34uK3vO-54"><g transform="translate(0.5,0.5)"><ellipse cx="297" cy="120" rx="7" ry="7" fill="#ffffff" stroke="#000000" transform="rotate(90,300,120)" pointer-events="all" style="fill: light-dark(#ffffff, var(--ge-dark-color, #121212)); stroke: light-dark(rgb(0, 0, 0), rgb(255, 255, 255));"/><path d="M 300 110 Q 310 110 310 120 Q 310 130 300 130" fill="none" stroke="#000000" stroke-miterlimit="10" transform="rotate(90,300,120)" pointer-events="all" style="stroke: light-dark(rgb(0, 0, 0), rgb(255, 255, 255));"/></g><g><g><switch><foreignObject style="overflow: visible; text-align: left;" pointer-events="none" width="100%" height="100%" requiredFeatures="http://www.w3.org/TR/SVG11/feature#Extensibility"><div xmlns="http://www.w3.org/1999/xhtml" style="display: flex; align-items: unsafe center; justify-content: unsafe center; width: 1px; height: 1px; padding-top: 120px; margin-left: 257px;"><div style="box-sizing: border-box; font-size: 0; text-align: center; color: #000000; "><div style="display: inline-block; font-size: 10px; font-family: Helvetica; color: light-dark(#000000, #ffffff); line-height: 1.2; pointer-events: all; white-space: nowrap; "><font style="font-size: 14px;">Manage</font><div style="font-size: 14px;"><font style="font-size: 14px;">Users</font></div></div></div></div></foreignObject><text x="257" y="123" fill="light-dark(#000000, #ffffff)" font-family="Helvetica" font-size="10px" text-anchor="middle">Manage...</text></switch></g></g></g><g data-cell-id="c7EXTvOgZtUoP34uK3vO-56"><g transform="translate(0.5,0.5)"><rect x="500" y="355" width="140" height="35" fill="#ffffff" stroke="#000000" pointer-events="all" style="fill: light-dark(#ffffff, var(--ge-dark-color, #121212)); stroke: light-dark(rgb(0, 0, 0), rgb(255, 255, 255));"/></g><g><g><switch><foreignObject style="overflow: visible; text-align: left;" pointer-events="none" width="100%" height="100%" requiredFeatures="http://www.w3.org/TR/SVG11/feature#Extensibility"><div xmlns="http://www.w3.org/1999/xhtml" style="display: flex; align-items: unsafe center; justify-content: unsafe center; width: 138px; height: 1px; padding-top: 373px; margin-left: 501px;"><div style="box-sizing: border-box; font-size: 0; text-align: center; color: #000000; "><div style="display: inline-block; font-size: 12px; font-family: Helvetica; color: light-dark(#000000, #ffffff); line-height: 1.2; pointer-events: all; white-space: normal; word-wrap: normal; "><font style="font-size: 14px;">Interview</font></div></div></div></foreignObject><text x="570" y="376" fill="light-dark(#000000, #ffffff)" font-family="Helvetica" font-size="12px" text-anchor="middle">Interview</text></switch></g></g><g data-cell-id="c7EXTvOgZtUoP34uK3vO-57"><g transform="translate(0.5,0.5)"><path d="M 617 362 L 633 362 L 633 382 L 617 382 L 617 378 L 613 378 L 613 374 L 617 374 L 617 370 L 613 370 L 613 366 L 617 366 Z" fill="#ffffff" stroke="#000000" stroke-miterlimit="10" pointer-events="all" style="fill: light-dark(#ffffff, var(--ge-dark-color, #121212)); stroke: light-dark(rgb(0, 0, 0), rgb(255, 255, 255));"/><path d="M 617 366 L 621 366 L 621 370 L 617 370 M 617 374 L 621 374 L 621 378 L 617 378" fill="none" stroke="#000000" stroke-miterlimit="10" pointer-events="all" style="stroke: light-dark(rgb(0, 0, 0), rgb(255, 255, 255));"/></g></g></g><g data-cell-id="c7EXTvOgZtUoP34uK3vO-59"><g transform="translate(0.5,0.5)"><path d="M 53 108 Q 60 108 60 119.5 Q 60 131 53 131" fill="none" stroke="#000000" stroke-miterlimit="10" pointer-events="all" style="stroke: light-dark(rgb(0, 0, 0), rgb(255, 255, 255));"/></g></g><g data-cell-id="c7EXTvOgZtUoP34uK3vO-65"><g transform="translate(0.5,0.5)"><path d="M 300 130 L 300 150 L 300.44 170" fill="none" stroke="#000000" stroke-miterlimit="10" pointer-events="stroke" style="stroke: light-dark(rgb(0, 0, 0), rgb(255, 255, 255));"/></g></g><g data-cell-id="c7EXTvOgZtUoP34uK3vO-68"><g transform="translate(0.5,0.5)"><path d="M 419.89 131 L 419.88 170" fill="none" stroke="#000000" stroke-miterlimit="10" pointer-events="stroke" style="stroke: light-dark(rgb(0, 0, 0), rgb(255, 255, 255));"/></g></g><g data-cell-id="c7EXTvOgZtUoP34uK3vO-71"><g transform="translate(0.5,0.5)"><path d="M 569.9 131 L 569.88 170" fill="none" stroke="#000000" stroke-miterlimit="10" pointer-events="stroke" style="stroke: light-dark(rgb(0, 0, 0), rgb(255, 255, 255));"/></g></g><g data-cell-id="c7EXTvOgZtUoP34uK3vO-72"><g transform="translate(0.5,0.5)"><path d="M 299.88 70 L 299.88 111" fill="none" stroke="#000000" stroke-miterlimit="10" pointer-events="stroke" style="stroke: light-dark(rgb(0, 0, 0), rgb(255, 255, 255));"/></g></g><g data-cell-id="c7EXTvOgZtUoP34uK3vO-73"><g transform="translate(0.5,0.5)"><path d="M 49.88 70 L 49.88 111" fill="none" stroke="#000000" stroke-miterlimit="10" pointer-events="stroke" style="stroke: light-dark(rgb(0, 0, 0), rgb(255, 255, 255));"/></g></g><g data-cell-id="c7EXTvOgZtUoP34uK3vO-74"><g transform="translate(0.5,0.5)"><path d="M 249 267.26 L 310 267.26" fill="none" stroke="#000000" stroke-miterlimit="10" pointer-events="stroke" style="stroke: light-dark(rgb(0, 0, 0), rgb(255, 255, 255));"/></g></g><g data-cell-id="c7EXTvOgZtUoP34uK3vO-76"><g transform="translate(0.5,0.5)"><path d="M 150 267.41 L 229 267.41" fill="none" stroke="#000000" stroke-miterlimit="10" pointer-events="stroke" style="stroke: light-dark(rgb(0, 0, 0), rgb(255, 255, 255));"/></g></g><g data-cell-id="c7EXTvOgZtUoP34uK3vO-77"><g transform="translate(0.5,0.5)"><path d="M 249 422.27 L 310 422.27" fill="none" stroke="#000000" stroke-miterlimit="10" pointer-events="stroke" style="stroke: light-dark(rgb(0, 0, 0), rgb(255, 255, 255));"/></g></g><g data-cell-id="c7EXTvOgZtUoP34uK3vO-78"><g transform="translate(0.5,0.5)"><path d="M 150 422.42 L 229 422.42" fill="none" stroke="#000000" stroke-miterlimit="10" pointer-events="stroke" style="stroke: light-dark(rgb(0, 0, 0), rgb(255, 255, 255));"/></g></g><g data-cell-id="c7EXTvOgZtUoP34uK3vO-79"><g transform="translate(0.5,0.5)"><path d="M 387.98 291.86 L 388 375 L 493.63 375" fill="none" stroke="#000000" stroke-miterlimit="10" pointer-events="stroke" style="stroke: light-dark(rgb(0, 0, 0), rgb(255, 255, 255));"/><path d="M 387.98 286.61 L 391.48 293.61 L 387.98 291.86 L 384.48 293.61 Z" fill="#000000" stroke="#000000" stroke-miterlimit="10" pointer-events="all" style="fill: light-dark(rgb(0, 0, 0), rgb(255, 255, 255)); stroke: light-dark(rgb(0, 0, 0), rgb(255, 255, 255));"/><path d="M 498.88 375 L 491.88 378.5 L 493.63 375 L 491.88 371.5 Z" fill="#000000" stroke="#000000" stroke-miterlimit="10" pointer-events="all" style="fill: light-dark(rgb(0, 0, 0), rgb(255, 255, 255)); stroke: light-dark(rgb(0, 0, 0), rgb(255, 255, 255));"/></g></g></g></g></g></svg>